<svg viewBox="0 0 48 48" width="28" height="28"
      fill="none" stroke="currentColor" stroke-width="1.75"
      stroke-linecap="round" stroke-linejoin="round">
  <!-- Cycle arrows -->
  <g opacity=".75">
    <path d="M10 30c-2-8 4-16 12-18" />
    <path d="M16 33c4 5 11 7 17 5" />
    <path d="M28 11c5 2 9 7 9 13" />
    <!-- arrowheads -->
    <path d="M21 11l3-1-1 3" />
    <path d="M33 37l3 1-1-3" />
    <path d="M9 25l-1 3 3-1" />
  </g>

  <!-- Gear (top/center) -->
  <g>
    <circle cx="24" cy="10" r="6.5" />
    <circle cx="24" cy="10" r="2.5" />
    <path d="M24 2.8v3.2M24 14v3.2M17.6 5.6l2.3 2.3M28.1 12.1l2.3 2.3M31.2 5.6l-2.3 2.3M17.6 12.1l-2.3 2.3" />
  </g>

  <!-- Document (bottom-left) -->
  <g>
    <rect x="6" y="30" width="14" height="12" rx="2" />
    <path d="M9 34h8M9 38h6" />
  </g>

  <!-- Bulb (bottom-right, accented) -->
  <g>
    <path d="M34 42h6" />
    <path d="M35.5 45h3" />
    <path d="M37 24a7 7 0 0 0-7 7c0 2.1.9 3.6 2.1 4.9.7.8 1.2 1.8 1.4 2.9h6c.2-1.1.7-2.1 1.4-2.9A6.8 6.8 0 0 0 44 31a7 7 0 0 0-7-7z"
          fill="var(--pico-primary-background)" stroke="var(--pico-primary)"/>
    <!-- little rays -->
    <path d="M30.5 27.5l-1.5-1.2M43.5 27.5l1.5-1.2M31 34h-2" stroke="var(--pico-primary)"/>
  </g>
</svg>
