<svg xmlns="http://www.w3.org/2000/svg" xmlns:xlink="http://www.w3.org/1999/xlink" xmlns:xodm="http://www.corel.com/coreldraw/odm/2003" xml:space="preserve" version="1.1" style="shape-rendering:geometricPrecision;text-rendering:geometricPrecision;image-rendering:optimizeQuality;" viewBox="0 0 846.66 1058.325" x="0px" y="0px" fill-rule="evenodd" clip-rule="evenodd"><defs><style type="text/css">
   
    .fil0 {fill:black;fill-rule:nonzero}
   
  </style></defs><g><path class="fil0" d="M717.81 352.65l0 462.42 -409.35 0 0 -353.51 35.22 0 0 318.3 338.92 0 0 -402.32 -49.24 0c-30.13,0 -54.73,-24.59 -54.73,-54.73l0 -49.23 -161.56 0c5.16,-11.1 9.43,-22.61 11.95,-35.22l174.51 0 114.28 114.29zm-406.67 -122.47c9.49,0 17.17,7.68 17.17,17.18 0,6.27 -3.35,11.75 -8.37,14.76l0 91.59 7.33 0c11.82,-52.01 56.05,-97.5 56.05,-140.54 0,-39.92 -32.26,-72.18 -72.18,-72.18 -39.9,0 -72.2,32.29 -72.2,72.18 0,43.7 44.14,88.24 56.05,140.54l7.34 0 0 -91.59c-5.02,-3.01 -8.38,-8.49 -8.38,-14.76 0,-9.5 7.69,-17.18 17.19,-17.18zm138.22 -135.89l-43.69 43.68 -18.67 -18.68 43.68 -43.67 18.68 18.67zm-214.1 214.09l-43.67 43.69 -18.68 -18.68 43.67 -43.68 18.68 18.67zm195.42 43.64l-43.68 -43.69 18.67 -18.56 43.69 43.68 -18.68 18.57zm-214.1 -214.04l-43.67 -43.68 18.68 -18.67 43.67 43.67 -18.68 18.68zm276.82 89.06l-61.77 0 0 -26.42 61.77 0 0 26.42zm-302.77 0l-61.77 0 0 -26.42 61.77 0 0 26.42zm107.29 -133.71l0 -61.76 26.41 0 0 61.76 -26.41 0zm61.42 279.22l0 39.37c0,20.95 -17.26,38.19 -38.19,38.19l-20.03 0c-20.96,0 -38.18,-17.21 -38.18,-38.19l0 -39.31c-11.27,-64.58 -59.21,-97.68 -59.21,-159.44 0,-59.23 48.15,-107.39 107.41,-107.39 59.28,0 107.39,48.12 107.39,107.39 0,61.06 -47.93,95 -59.19,159.38zm-61.19 16.38l0 22.99c0,1.63 1.35,2.98 2.97,2.98l20.03 0c1.68,0 2.98,-1.29 2.98,-2.98l0 -22.99 -25.98 0zm95.73 152.99l193.39 0 0 26.42 -193.39 0 0 -26.42zm0 -106.99l240.95 0 0 26.42 -240.95 0 0 -26.42zm0 53.51l240.95 0 0 26.4 -240.95 0 0 -26.4zm0 213.97l228.85 0 0 26.42 -228.85 0 0 -26.42zm0 -53.48l238.52 0 0 26.4 -238.52 0 0 -26.4zm0 -53.51l193.39 0 0 26.42 -193.39 0 0 -26.42zm0 -213.99l193.39 0 0 26.41 -193.39 0 0 -26.41zm263.83 -39.1l-43.87 -43.86 0 24.34c0,10.7 8.82,19.52 19.52,19.52l24.35 0z"/></g><text x="0" y="861.66" fill="#000000" font-size="5px" font-weight="bold" font-family="'Helvetica Neue', Helvetica, Arial-Unicode, Arial, Sans-serif">Created by SUPRIYANTO YANTO</text><text x="0" y="866.66" fill="#000000" font-size="5px" font-weight="bold" font-family="'Helvetica Neue', Helvetica, Arial-Unicode, Arial, Sans-serif">from the Noun Project</text></svg>